<?xml version="1.0" encoding="UTF-8" standalone="no"?>
<svg width="608px" height="719px" viewBox="0 0 608 719" version="1.1" xmlns="http://www.w3.org/2000/svg" xmlns:xlink="http://www.w3.org/1999/xlink" xmlns:sketch="http://www.bohemiancoding.com/sketch/ns">
    <!-- Generator: Sketch 3.1 (8751) - http://www.bohemiancoding.com/sketch -->
    <title>Slice 2</title>
    <desc>Created with Sketch.</desc>
    <defs></defs>
    <g id="Page-1" stroke="none" stroke-width="1" fill="none" fill-rule="evenodd" sketch:type="MSPage">
        <g id="Android" sketch:type="MSLayerGroup" transform="translate(5.000000, 5.000000)">
            <g id="Page-1" sketch:type="MSShapeGroup">
                <g id="b-+-Group-+-Group">
                    <g id="b" transform="translate(111.000000, 48.000000)" stroke="#FFFFFF" stroke-width="14.4" fill="#ACACAC">
                        <ellipse id="Oval" cx="189.429" cy="174.857" rx="189.429" ry="174.857"></ellipse>
                    </g>
                    <g id="Group" fill="#ACACAC">
                        <g id="a" transform="translate(169.000000, 0.000000)" stroke="#FFFFFF" stroke-width="7.2">
                            <path d="M6.886,1.746 L6.886,1.746 C0.35,5.369 -2.011,13.604 1.612,20.14 L75.283,153.046 C78.906,159.582 87.141,161.943 93.677,158.32 L93.677,158.32 C100.213,154.697 102.574,146.462 98.951,139.926 L25.28,7.021 C21.657,0.485 13.422,-1.876 6.886,1.746 L6.886,1.746 L6.886,1.746 Z" id="Shape"></path>
                            <path d="M378.714,222.98 L378.714,222.98 C351.122,222.98 328.755,245.347 328.755,272.939 L328.755,449.878 C328.755,477.47 351.122,499.837 378.714,499.837 L378.714,499.837 C406.306,499.837 428.673,477.47 428.673,449.878 L428.673,272.939 C428.673,245.347 406.306,222.98 378.714,222.98 L378.714,222.98 L378.714,222.98 Z" id="c"></path>
                            <g id="Group" transform="translate(209.000000, 570.500000) scale(-1, 1) translate(-209.000000, -570.500000) translate(159.000000, 432.000000)">
                                <path d="M49.776,-0.102 L49.776,-0.102 C22.184,-0.102 -0.183,22.265 -0.183,49.857 L-0.183,226.796 C-0.183,254.388 22.184,276.755 49.776,276.755 L49.776,276.755 C77.368,276.755 99.735,254.388 99.735,226.796 L99.735,49.857 C99.735,22.265 77.367,-0.102 49.776,-0.102 L49.776,-0.102 L49.776,-0.102 Z" id="c_1_"></path>
                            </g>
                        </g>
                        <g id="a_1_" transform="translate(0.000000, 7.000000)" stroke="#FFFFFF" stroke-width="7.2">
                            <path d="M422.114,1.746 L422.114,1.746 C428.65,5.369 431.011,13.604 427.388,20.14 L353.717,153.046 C350.094,159.582 341.859,161.943 335.323,158.32 L335.323,158.32 C328.787,154.697 326.426,146.462 330.049,139.926 L403.72,7.021 C407.343,0.485 415.578,-1.876 422.114,1.746 L422.114,1.746 L422.114,1.746 Z" id="Shape"></path>
                            <path d="M50.286,222.98 L50.286,222.98 C77.878,222.98 100.245,245.347 100.245,272.939 L100.245,449.878 C100.245,477.47 77.878,499.837 50.286,499.837 L50.286,499.837 C22.694,499.837 0.327,477.47 0.327,449.878 L0.327,272.939 C0.327,245.347 22.694,222.98 50.286,222.98 L50.286,222.98 L50.286,222.98 Z" id="c_2_"></path>
                            <path d="M227.224,424.898 L227.224,424.898 C254.816,424.898 277.183,447.265 277.183,474.857 L277.183,651.796 C277.183,679.388 254.816,701.755 227.224,701.755 L227.224,701.755 C199.632,701.755 177.265,679.388 177.265,651.796 L177.265,474.857 C177.265,447.265 199.633,424.898 227.224,424.898 L227.224,424.898 L227.224,424.898 Z" id="c_3_"></path>
                        </g>
                        <g id="b_1_" transform="translate(111.000000, 48.000000)">
                            <ellipse id="Oval" cx="189.429" cy="174.857" rx="189.429" ry="174.857"></ellipse>
                            <path d="M45.367,131.265 L332.632,131.265 C357.924,131.265 378.428,151.769 378.428,177.061 L378.428,464.326 C378.428,489.618 357.924,510.122 332.632,510.122 L45.367,510.122 C20.075,510.122 -0.429,489.618 -0.429,464.326 L-0.429,177.061 C-0.429,151.769 20.075,131.265 45.367,131.265 L45.367,131.265 L45.367,131.265 Z" id="Shape"></path>
                        </g>
                    </g>
                    <g id="Group" transform="translate(102.000000, 129.000000)" stroke="#FFFFFF" stroke-width="7.2" fill="#FFFFFF">
                        <path d="M0.245,101.265 L395.755,101.265" id="Shape"></path>
                        <circle id="Oval" cx="110.327" cy="8.327" r="8.327"></circle>
                        <circle id="Oval" cx="285.327" cy="8.327" r="8.327"></circle>
                    </g>
                </g>
            </g>
        </g>
    </g>
</svg>