<?xml version="1.0" encoding="utf-8"?>
<!-- Generator: Adobe Illustrator 17.0.0, SVG Export Plug-In . SVG Version: 6.00 Build 0)  -->
<!DOCTYPE svg PUBLIC "-//W3C//DTD SVG 1.1//EN" "http://www.w3.org/Graphics/SVG/1.1/DTD/svg11.dtd">
<svg version="1.1" id="Layer_1" xmlns="http://www.w3.org/2000/svg" xmlns:xlink="http://www.w3.org/1999/xlink" x="0px" y="0px"
	 width="166.462px" height="185px" viewBox="0 0 166.462 185" enable-background="new 0 0 166.462 185" xml:space="preserve">
<g>
	<path fill="#CCCCCC" d="M489.073,65.812c-1.93-1.236-3.858-2.476-5.796-3.699c-1.061-0.67-2.127-1.335-3.191-2.001
		C483.037,62.07,486.041,63.96,489.073,65.812z"/>
	<path d="M483.276,62.112c-1.061-0.67-2.127-1.335-3.191-2.001c2.952,1.959,5.956,3.849,8.988,5.7
		C487.142,64.576,485.215,63.335,483.276,62.112z"/>
</g>
<g>
	<polygon fill="#B3B3B3" points="83.243,0.875 0.554,29.975 13.621,138.311 83.331,176.625 153.4,137.792 166.462,29.46 	"/>
	<polygon fill="#3E3E3E" points="158.214,35.721 83.05,10.089 83.05,167.471 146.041,132.609 	"/>
	<polygon fill="#555555" points="9.833,36.183 21.03,133.072 83.049,167.471 83.049,10.086 	"/>
	<path fill="#F2F2F2" d="M103.74,93.871l-20.69,9.675H61.243l-10.251,25.64l-19.067,0.353L83.05,15.804L103.74,93.871z M101.74,89
		L83.187,52.271L67.969,88.368h15.08L101.74,89z"/>
	<polygon fill="#B3B3B3" points="83.049,15.804 83.186,52.271 100.454,88.396 83.088,88.396 83.049,103.523 107.062,103.546 
		118.285,129.543 136.529,129.881 	"/>
</g>
</svg>
