<?xml version="1.0" encoding="utf-8"?>
<!-- Generator: Adobe Illustrator 17.0.0, SVG Export Plug-In . SVG Version: 6.00 Build 0)  -->
<!DOCTYPE svg PUBLIC "-//W3C//DTD SVG 1.1//EN" "http://www.w3.org/Graphics/SVG/1.1/DTD/svg11.dtd">
<svg version="1.1"
	 id="svg2" xmlns:dc="http://purl.org/dc/elements/1.1/" xmlns:cc="http://creativecommons.org/ns#" xmlns:rdf="http://www.w3.org/1999/02/22-rdf-syntax-ns#" xmlns:svg="http://www.w3.org/2000/svg"
	 xmlns="http://www.w3.org/2000/svg" xmlns:xlink="http://www.w3.org/1999/xlink" x="0px" y="0px" width="120px" height="51.958px"
	 viewBox="0 0 120 51.958" enable-background="new 0 0 120 51.958" xml:space="preserve">
<path id="path243" fill="#8C8C8C" d="M39.328,18.156c-2.287,0-4.84,0.881-5.375,3.781c-0.057,0.308,0.147,0.455,0.344,0.5
	l2.344,0.281c0.217-0.011,0.364-0.247,0.406-0.469c0.2-0.998,1.021-1.469,1.938-1.469c0.495,0,1.051,0.17,1.344,0.625
	c0.336,0.507,0.312,1.196,0.312,1.781v0.344c-1.393,0.16-3.227,0.257-4.531,0.844c-1.505,0.669-2.562,2.03-2.562,4.031
	c0,2.564,1.571,3.844,3.594,3.844c1.708,0,2.652-0.401,3.969-1.781c0.437,0.65,0.577,0.945,1.375,1.625
	c0.178,0.096,0.403,0.086,0.562-0.062v0.031c0.48-0.437,1.353-1.234,1.844-1.656c0.196-0.164,0.153-0.433,0-0.656
	c-0.439-0.622-0.906-1.124-0.906-2.281v-3.844c0-1.628,0.138-3.129-1.031-4.25C42.032,18.468,40.496,18.156,39.328,18.156z
	 M70.828,18.156c-2.288,0-4.839,0.881-5.375,3.781c-0.057,0.308,0.146,0.455,0.344,0.5l2.344,0.281
	c0.217-0.011,0.365-0.247,0.406-0.469c0.201-0.998,1.021-1.469,1.938-1.469c0.496,0,1.051,0.17,1.344,0.625
	c0.335,0.507,0.281,1.196,0.281,1.781v0.344c-1.393,0.16-3.196,0.257-4.5,0.844c-1.506,0.669-2.562,2.03-2.562,4.031
	c0,2.564,1.572,3.844,3.594,3.844c1.706,0,2.65-0.401,3.969-1.781c0.435,0.65,0.577,0.945,1.375,1.625
	c0.179,0.096,0.404,0.086,0.562-0.062v0.031c0.481-0.437,1.353-1.234,1.844-1.656c0.196-0.164,0.151-0.433,0-0.656
	c-0.439-0.622-0.906-1.124-0.906-2.281v-3.844c0-1.628,0.105-3.129-1.062-4.25C73.5,18.468,71.996,18.156,70.828,18.156z
	 M53.109,18.281c-1.478,0-2.574,0.746-3.156,2.344h-0.031v-1.656c-0.015-0.231-0.203-0.426-0.438-0.438h-2.25
	c-0.255,0-0.469,0.216-0.469,0.469v12.656c0.019,0.225,0.208,0.421,0.438,0.438h2.406c0.257,0,0.468-0.214,0.469-0.469v-6.719
	c0-1.465-0.071-3.469,1.656-3.469c1.705,0,1.469,2.059,1.469,3.469v6.719c0,0.239,0.195,0.453,0.438,0.469h2.406
	c0.256,0,0.469-0.214,0.469-0.469v-6.719c0-0.719-0.029-1.766,0.219-2.406c0.247-0.64,0.854-1.062,1.438-1.062
	c0.696,0,1.227,0.243,1.406,1.094c0.112,0.506,0.062,1.843,0.062,2.375v6.719c0,0.239,0.195,0.453,0.438,0.469h2.406
	c0.256,0,0.469-0.214,0.469-0.469v-8c0-1.359,0.137-2.902-0.625-3.969c-0.673-0.958-1.773-1.375-2.781-1.375
	c-1.414,0-2.729,0.746-3.312,2.344C55.561,19.028,54.612,18.281,53.109,18.281z M94.016,18.281c-3.477,0-5.406,3.057-5.406,7
	c0,3.916,1.908,7.063,5.406,7.063c3.365,0,5.5-3.075,5.5-6.938C99.516,21.412,97.582,18.281,94.016,18.281z M107.734,18.281
	c-1.661,0-2.61,0.83-3.281,2.562h-0.031v-1.938c-0.043-0.196-0.228-0.332-0.438-0.344h-2.219c-0.242,0-0.447,0.175-0.469,0.406
	v12.656c0,0.239,0.197,0.453,0.438,0.469h2.375c0.256,0,0.465-0.213,0.469-0.469v-6.812c0-0.854,0.072-1.633,0.406-2.406
	c0.269-0.613,0.791-1,1.375-1c1.658,0,1.5,2.02,1.5,3.406v6.875c0.024,0.215,0.217,0.392,0.438,0.406h2.406
	c0.237,0,0.441-0.18,0.469-0.406v-7.969c0-1.225,0.003-2.927-0.625-3.938C109.874,18.688,108.808,18.281,107.734,18.281
	L107.734,18.281z M78.859,18.5c-0.244,0-0.437,0.194-0.438,0.469v1.812c0.001,0.271,0.188,0.467,0.438,0.469h4.125l-4.719,6.969
	c-0.288,0.449-0.312,0.958-0.312,1.25v1.844c0,0.265,0.288,0.554,0.562,0.406c2.689-1.468,5.912-1.337,8.344-0.031
	c0.295,0.161,0.594-0.141,0.594-0.406v-1.938c-0.024-0.259-0.126-0.508-0.438-0.688c-1.38-0.794-2.982-1.037-4.5-1l4.094-6
	c0.379-0.539,0.591-0.864,0.594-1.125v-1.562c0-0.269-0.184-0.469-0.438-0.469H78.859z M94.016,20.875
	c0.762,0,1.324,0.34,1.594,1.219c0.313,1.013,0.344,2.278,0.344,3.344c0,1.624-0.076,4.312-1.938,4.312
	c-1.883,0-1.875-3.328-1.875-4.875C92.141,23.332,92.245,20.875,94.016,20.875z M40.609,25.5v0.531c0,0.961,0.035,1.77-0.438,2.625
	c-0.382,0.695-0.982,1.125-1.656,1.125c-0.92,0-1.469-0.747-1.469-1.812C37.047,25.868,38.872,25.5,40.609,25.5z M72.109,25.5v0.531
	c0,0.961,0.035,1.77-0.438,2.625c-0.382,0.695-0.979,1.125-1.656,1.125c-0.921,0-1.469-0.747-1.469-1.812
	C68.547,25.868,70.37,25.5,72.109,25.5z"/>
<path id="path257" fill="#8C8C8C" d="M87.703,32.5v1.812h1.219V32.5H87.703z M52.359,32.812v12.906h1.125v-1.156
	c0.24,0.458,0.513,0.8,0.844,1.031c0.33,0.231,0.709,0.344,1.125,0.344c0.826,0,1.539-0.422,2.156-1.281s0.938-2.104,0.938-3.688
	c0-1.037-0.133-1.897-0.406-2.625c-0.273-0.727-0.638-1.267-1.094-1.625c-0.456-0.357-0.974-0.562-1.531-0.562
	c-0.398,0-0.77,0.104-1.094,0.312c-0.325,0.208-0.588,0.547-0.844,0.969v-4.625C53.578,32.812,52.359,32.812,52.359,32.812z
	 M63.922,35.844c-0.848,0-1.521,0.251-2,0.75c-0.479,0.498-0.719,1.14-0.719,1.938c0,0.463,0.104,0.855,0.281,1.219
	s0.431,0.658,0.75,0.875c0.32,0.217,0.958,0.501,1.906,0.812c0.656,0.211,1.048,0.39,1.219,0.531
	c0.248,0.205,0.375,0.474,0.375,0.844c0,0.428-0.148,0.785-0.438,1.062c-0.289,0.279-0.691,0.406-1.219,0.406
	s-0.962-0.148-1.281-0.469s-0.491-0.809-0.562-1.469l-1.219,0.25c0.276,2.005,1.276,3.001,3,3c0.92,0,1.624-0.261,2.156-0.812
	s0.812-1.294,0.812-2.188c0-0.482-0.085-0.9-0.25-1.25c-0.165-0.349-0.392-0.61-0.688-0.812c-0.297-0.202-0.959-0.472-1.969-0.812
	c-0.734-0.257-1.164-0.445-1.312-0.562c-0.249-0.198-0.375-0.467-0.375-0.812c0-0.351,0.116-0.65,0.375-0.875
	c0.259-0.224,0.659-0.344,1.188-0.344c0.932,0,1.452,0.511,1.562,1.531l1.188-0.188c-0.082-0.645-0.223-1.154-0.438-1.5
	s-0.533-0.638-0.938-0.844C64.922,35.92,64.457,35.844,63.922,35.844z M71.391,35.844c-0.976,0-1.801,0.403-2.438,1.25
	s-0.938,2.076-0.938,3.688c0,1.553,0.307,2.77,0.938,3.594c0.631,0.823,1.449,1.219,2.469,1.219c0.81,0,1.483-0.243,2.031-0.75
	c0.549-0.507,0.947-1.253,1.156-2.25l-1.25-0.219c-0.359,1.278-1.021,1.904-1.938,1.906c-0.584,0-1.061-0.248-1.469-0.781
	c-0.408-0.534-0.638-1.326-0.688-2.375h5.375v-0.438c0-1.577-0.314-2.761-0.938-3.594C73.079,36.261,72.323,35.844,71.391,35.844z
	 M78.797,35.844c-0.292,0-0.547,0.098-0.781,0.312s-0.5,0.655-0.781,1.312V36.03h-1.094v9.344h1.219V40.5
	c0-0.68,0.064-1.333,0.219-1.938c0.088-0.346,0.254-0.619,0.469-0.812s0.46-0.281,0.719-0.281c0.287,0,0.572,0.115,0.875,0.344
	l0.406-1.469C79.622,36.004,79.205,35.844,78.797,35.844z M93.734,35.844c-0.965,0-1.76,0.407-2.375,1.219
	c-0.614,0.812-0.938,2.032-0.938,3.656c0,1.612,0.328,2.832,0.938,3.656c0.61,0.823,1.37,1.219,2.312,1.219
	c0.777,0,1.446-0.289,2-0.875c0.555-0.586,0.893-1.449,1.031-2.562l-1.188-0.188c-0.088,0.797-0.296,1.37-0.625,1.75
	c-0.329,0.378-0.725,0.562-1.188,0.562c-0.59,0-1.092-0.275-1.469-0.844c-0.377-0.568-0.562-1.478-0.562-2.75
	c0-1.232,0.2-2.121,0.594-2.688s0.899-0.875,1.5-0.875c0.402,0,0.745,0.157,1.031,0.469c0.288,0.312,0.479,0.807,0.594,1.438
	l1.188-0.25c-0.143-0.985-0.459-1.727-0.969-2.219C95.098,36.069,94.478,35.844,93.734,35.844z M100.703,35.844
	c-0.976,0-1.801,0.403-2.438,1.25s-0.938,2.076-0.938,3.688c0,1.553,0.307,2.77,0.938,3.594c0.632,0.823,1.449,1.219,2.469,1.219
	c0.809,0,1.482-0.243,2.031-0.75c0.548-0.507,0.946-1.253,1.156-2.25l-1.25-0.219c-0.359,1.278-0.992,1.904-1.906,1.906
	c-0.584,0-1.092-0.248-1.5-0.781c-0.408-0.534-0.637-1.326-0.688-2.375h5.375v-0.438c0-1.577-0.314-2.761-0.938-3.594
	C102.394,36.261,101.635,35.844,100.703,35.844z M107.922,35.844c-0.849,0-1.521,0.251-2,0.75c-0.48,0.498-0.719,1.14-0.719,1.938
	c0,0.463,0.073,0.855,0.25,1.219c0.176,0.364,0.43,0.658,0.75,0.875c0.319,0.217,0.958,0.501,1.906,0.812
	c0.655,0.211,1.079,0.39,1.25,0.531c0.248,0.205,0.375,0.474,0.375,0.844c0,0.428-0.148,0.785-0.438,1.062
	c-0.288,0.279-0.692,0.406-1.219,0.406c-0.529,0-0.962-0.148-1.281-0.469c-0.318-0.321-0.523-0.809-0.594-1.469l-1.219,0.25
	c0.275,2.005,1.274,3.001,3,3c0.921,0,1.656-0.261,2.188-0.812c0.532-0.552,0.812-1.294,0.812-2.188c0-0.482-0.085-0.901-0.25-1.25
	s-0.422-0.61-0.719-0.812c-0.296-0.202-0.927-0.472-1.938-0.812c-0.734-0.257-1.196-0.445-1.344-0.562
	c-0.249-0.198-0.375-0.467-0.375-0.812c0-0.351,0.147-0.651,0.406-0.875s0.659-0.344,1.188-0.344c0.931,0,1.452,0.511,1.562,1.531
	l1.188-0.188c-0.083-0.645-0.222-1.154-0.438-1.5c-0.215-0.346-0.533-0.638-0.938-0.844
	C108.923,35.92,108.456,35.844,107.922,35.844z M80.047,36.031l2.719,9.344h1.156l2.719-9.344h-1.25l-1.594,5.719
	c-0.193,0.692-0.364,1.288-0.469,1.781c-0.133-0.621-0.26-1.273-0.438-1.906l-1.562-5.594H80.047z M87.703,36.031v9.344h1.219
	v-9.344H87.703z M47.641,36.156c-0.967,0-1.745,0.434-2.375,1.281c-0.631,0.847-0.969,2.076-0.969,3.688
	c0,1.553,0.312,2.74,0.938,3.562c0.625,0.823,1.459,1.25,2.469,1.25c0.802,0,1.457-0.274,2-0.781
	c0.542-0.507,0.917-1.253,1.125-2.25l-1.219-0.188c-0.355,1.278-1,1.904-1.906,1.906c-0.579,0-1.065-0.248-1.469-0.781
	c-0.404-0.534-0.639-1.326-0.688-2.375h5.312l0.031-0.438c0-1.577-0.32-2.792-0.938-3.625S48.563,36.156,47.641,36.156z
	 M33.922,36.375l2.188,9.344h1.281l1.438-7.188l0.25,1.594l1.156,5.594h1.25l2.219-9.344h-1.156l-1.219,5.406l-0.406,1.812
	l-0.375-1.812l-1.062-5.406h-1.25l-1.125,5.469l-0.375,1.938l-0.438-2l-1.125-5.406L33.922,36.375L33.922,36.375z M111.703,36.469
	v0.438h1.188v3.125h0.469v-3.125h1.188v-0.438H111.703z M115.016,36.469v3.562h0.438V37l1.031,3.031h0.438l1.031-2.969v2.969h0.469
	v-3.562h-0.656l-0.844,2.5c-0.085,0.25-0.146,0.431-0.188,0.562L116.547,39l-0.844-2.531H115.016z M71.359,37.125
	c0.607,0,1.108,0.294,1.5,0.875c0.27,0.399,0.445,1.004,0.5,1.812h-4.031c0.038-0.821,0.27-1.453,0.656-1.938
	S70.814,37.125,71.359,37.125z M100.672,37.125c0.605,0,1.108,0.294,1.5,0.875c0.269,0.399,0.445,1.004,0.5,1.812h-4.031
	c0.038-0.821,0.269-1.453,0.656-1.938C99.682,37.391,100.126,37.125,100.672,37.125z M47.641,37.469c0.6,0,1.082,0.294,1.469,0.875
	c0.267,0.399,0.445,1.004,0.5,1.812h-3.969c0.038-0.821,0.241-1.485,0.625-1.969C46.648,37.703,47.1,37.469,47.641,37.469z
	 M55.391,37.469c0.542,0,1.003,0.301,1.375,0.875c0.372,0.575,0.531,1.461,0.531,2.688c0,1.196-0.176,2.086-0.562,2.688
	s-0.846,0.906-1.344,0.906c-0.366,0-0.699-0.123-1-0.375c-0.302-0.252-0.523-0.614-0.688-1.094c-0.164-0.481-0.25-1.221-0.25-2.188
	c0-1.138,0.203-1.993,0.594-2.594S54.893,37.469,55.391,37.469z"/>
<path id="polygon287" fill="#AFAFAF" d="M16.406,27.562l-4.656,2l4.312,1.844l5-1.844L16.406,27.562z M9.406,30.062l-0.156,9
	l6.812,3v-9.344L9.406,30.062z M23.406,30.062l-6.156,2.344v8.812l6.156-2.5V30.062z"/>
<path id="polygon311" fill="#AFAFAF" d="M30.75,2.062l-4.688,2l4.344,1.844l5-1.844L30.75,2.062z M24.25,4.719v9l5.812,1.688
	l0.188-8.188L24.25,4.719z M37.25,5.219l-5.5,2.344v8.844l5.5-2.5V5.219z"/>
<path id="use3387" fill="#AFAFAF" d="M8.734,14.729l-4.656,2l4.312,1.844l5-1.844L8.734,14.729z M1.734,17.229l-0.156,9l6.812,3
	v-9.344L1.734,17.229z M15.734,17.229l-6.156,2.344v8.812l6.156-2.5V17.229z"/>
<path id="use3389" fill="#AFAFAF" d="M23.734,14.397l-4.656,2l4.312,1.844l5-1.844L23.734,14.397z M16.734,16.897l-0.156,9l6.812,3
	v-9.344L16.734,16.897z M30.734,16.897l-6.156,2.344v8.812l6.156-2.5V16.897z"/>
<path id="use3391" fill="#AFAFAF" d="M45.401,2.062l-4.656,2l4.312,1.844l5-1.844L45.401,2.062z M38.401,4.562l-0.156,9l6.812,3
	V7.219L38.401,4.562z M52.401,4.562l-6.156,2.344v8.812l6.156-2.5V4.562z"/>
</svg>
