<?xml version="1.0" encoding="utf-8"?>
<!-- Generator: Adobe Illustrator 17.0.0, SVG Export Plug-In . SVG Version: 6.00 Build 0)  -->
<!DOCTYPE svg PUBLIC "-//W3C//DTD SVG 1.1//EN" "http://www.w3.org/Graphics/SVG/1.1/DTD/svg11.dtd">
<svg version="1.1" id="Capa_1" xmlns="http://www.w3.org/2000/svg" xmlns:xlink="http://www.w3.org/1999/xlink" x="0px" y="0px"
	 width="354px" height="390px" viewBox="49.271 32.272 354 390" enable-background="new 49.271 32.272 354 390"
	 xml:space="preserve">
<g>
	<g>
		<path fill="#A0A0A0" d="M226.771,171.796c-30.361,0-54.976,24.614-54.976,54.975c0,9.929,2.646,19.235,7.25,27.274l95.272-54.857
			C264.796,182.814,247.075,171.796,226.771,171.796z"/>
		<path fill="#A0A0A0" d="M116.368,226.77c0-60.974,49.429-110.402,110.404-110.402c40.842,0,76.501,22.181,95.6,55.151
			L388.92,133.2c-2.67-4.686-6.667-8.613-12.028-11.718c-44.26-25.519-88.562-50.961-132.808-76.507
			c-11.928-6.888-23.492-6.637-35.333,0.349c-17.615,10.39-105.816,60.921-132.098,76.144
			c-10.824,6.266-16.091,15.855-16.093,28.319c-0.017,51.323,0,102.645-0.017,153.967c0.002,6.146,1.289,11.59,3.887,16.283
			l66.559-38.324C121.689,265.533,116.368,246.774,116.368,226.77z"/>
	</g>
	<g>
		<path fill="#2C2C2C" d="M179.046,254.045c9.476,16.543,27.29,27.701,47.725,27.701c20.561,0,38.477-11.299,47.905-28.018
			l-47.396-27.456L179.046,254.045z"/>
		<path fill="#2C2C2C" d="M226.771,337.174c-40.971,0-76.73-22.316-95.782-55.461L64.43,320.037
			c2.67,4.826,6.724,8.861,12.209,12.037c26.284,15.223,114.495,65.75,132.107,76.143c11.846,6.988,23.41,7.238,35.343,0.35
			c44.246-25.547,88.551-50.988,132.816-76.508c5.485-3.174,9.539-7.211,12.209-12.035l-66.457-38.498
			C303.634,314.768,267.817,337.174,226.771,337.174z"/>
	</g>
	<path fill="#535353" d="M392.982,149.8c-0.002-6.284-1.346-11.835-4.062-16.6l-161.64,93.071l161.834,93.752
		c2.593-4.693,3.883-10.137,3.885-16.283C392.999,303.74,392.999,201.123,392.982,149.8z M337.94,232.974h-12.645v12.647h-12.647
		v-12.647h-12.646v-12.646h12.646v-12.646h12.647v12.646h12.645V232.974z M384.084,232.974h-12.645v12.647H358.79v-12.647h-12.645
		v-12.646h12.645v-12.646h12.649v12.646h12.645V232.974z"/>
	<g>
		<polygon fill="#FFFFFF" points="371.439,207.681 358.789,207.681 358.789,220.328 346.145,220.328 346.145,232.974 
			358.789,232.974 358.789,245.621 371.439,245.621 371.439,232.974 384.084,232.974 384.084,220.328 371.439,220.328 		"/>
		<polygon fill="#FFFFFF" points="325.295,207.681 312.647,207.681 312.647,220.328 300.002,220.328 300.002,232.974 
			312.647,232.974 312.647,245.621 325.295,245.621 325.295,232.974 337.94,232.974 337.94,220.328 325.295,220.328 		"/>
		<path fill="#FFFFFF" d="M274.677,253.728c-9.429,16.72-27.344,28.018-47.905,28.018c-20.435,0-38.25-11.158-47.725-27.701
			c-4.604-8.039-7.25-17.346-7.25-27.274c0-30.361,24.615-54.975,54.976-54.975c20.304,0,38.024,11.018,47.547,27.392l48.053-27.669
			c-19.099-32.971-54.758-55.151-95.6-55.151c-60.975,0-110.404,49.429-110.404,110.402c0,20.004,5.322,38.763,14.622,54.942
			c19.052,33.145,54.811,55.461,95.782,55.461c41.046,0,76.862-22.406,95.886-55.648L274.677,253.728z"/>
	</g>
</g>
</svg>
