<?xml version="1.0" encoding="utf-8"?>
<!-- Generator: Adobe Illustrator 17.0.0, SVG Export Plug-In . SVG Version: 6.00 Build 0)  -->
<!DOCTYPE svg PUBLIC "-//W3C//DTD SVG 1.1//EN" "http://www.w3.org/Graphics/SVG/1.1/DTD/svg11.dtd">
<svg version="1.1" id="Layer_1" xmlns="http://www.w3.org/2000/svg" xmlns:xlink="http://www.w3.org/1999/xlink" x="0px" y="0px"
	 width="802.79px" height="722px" viewBox="0 0 802.79 722" enable-background="new 0 0 802.79 722" xml:space="preserve">
<g>
	<polygon fill="#CECECE" points="260.922,598.946 123.646,361.183 260.922,123.419 535.465,123.419 672.741,361.183 
		535.465,598.946 	"/>
	<path fill="#B7B7B7" d="M284.219,569.032l-122.045-208.66l-66.91-114.397c-4.875-8.443-6.905-19.997-6.129-31.059l-70.299,121.76
		c-8.412,14.571-8.412,38.413,0,52.983l169.145,292.965c8.41,14.568,29.061,26.489,45.885,26.489H435.18
		c8.055-4.768,15.068-11.228,19.17-18.327l68.91-121.754H284.219z"/>
	<g>
		<path fill="#808080" d="M0,864.036c0.486,0.134,0.966,0.284,1.438,0.457c2.122-0.298,4.239-0.613,6.345-0.951
			C5.179,863.381,2.492,863.633,0,864.036z"/>
		<path fill="#808080" d="M-70.644,897.602c0.065,0.026,0.131,0.052,0.196,0.079c1.371-0.127,2.742-0.247,4.113-0.372
			c-0.54-0.111-1.079-0.223-1.619-0.334C-68.842,897.201-69.742,897.404-70.644,897.602z"/>
		<path fill="#808080" d="M-108.264,986.663c-0.315-0.012-0.629-0.025-0.944-0.037c-0.003,0.003-0.005,0.006-0.008,0.009
			c1.017,0.271,2.036,0.531,3.054,0.796C-106.863,987.176-107.567,986.928-108.264,986.663z"/>
		<path fill="#808080" d="M-205.495,867.053c-0.24,0.254-0.484,0.505-0.729,0.756c0.675,0.31,1.353,0.62,2.024,0.928
			c1.009-0.182,2.019-0.354,3.029-0.512c-0.369-0.162-0.739-0.323-1.108-0.483C-203.351,867.51-204.423,867.282-205.495,867.053z"/>
		<path fill="#808080" d="M-290.319,878.36c-0.264-0.472-0.549-0.932-0.83-1.393c-0.885-0.136-1.771-0.272-2.657-0.407
			C-292.645,877.161-291.474,877.746-290.319,878.36z"/>
		<path fill="#808080" d="M-518.634,893.057c-0.557-0.163-1.114-0.329-1.671-0.492c0.283,1.464,0.581,2.925,0.897,4.38
			C-519.167,895.645-518.907,894.35-518.634,893.057z"/>
	</g>
	<g>
		<path fill="#808080" d="M275.674,911.875c0.014-1.018,0.03-2.054,0.043-3.095c-0.247,0.053-0.494,0.1-0.74,0.152
			c0.155,1.104,0.325,2.206,0.523,3.303C275.558,912.115,275.618,911.996,275.674,911.875z"/>
		<path fill="#808080" d="M634.139,869.385c2.756,0.04,5.52,0.069,8.288,0.091c-1.545-0.182-3.156-0.297-4.879-0.297
			c-1.136,0-2.274,0.06-3.415,0.14C634.135,869.341,634.137,869.363,634.139,869.385z"/>
		<path fill="#808080" d="M1098.967,940.801c-0.029,0.291-0.045,0.58-0.076,0.871c1.429-0.264,2.857-0.561,4.284-0.871H1098.967z"/>
		<path fill="#808080" d="M1275.021,948.708c0.99,0.114,1.999,0.202,3.034,0.252c-0.938-0.201-1.859-0.432-2.771-0.678
			C1275.21,948.437,1275.11,948.567,1275.021,948.708z"/>
	</g>
	<polygon fill="#717171" points="787.182,336.675 618.038,43.708 686.758,162.731 	"/>
	<path fill="#717171" d="M787.182,336.675L686.758,162.731c-8.686-5.33-18.682-8.71-27.611-8.71H523.004L640.721,361.51
		L523.26,569.032l-68.91,121.754c-4.102,7.1-11.115,13.56-19.17,18.327h136.971c16.826,0,37.475-11.921,45.887-26.489l67.27-116.512
		l101.875-176.453C795.596,375.088,795.596,351.247,787.182,336.675z"/>
	<path fill="#777777" d="M618.038,43.708c-8.412-14.57-29.06-26.492-45.887-26.492H439.118H233.866
		c-16.824,0-37.475,11.921-45.885,26.492L89.135,214.916c-0.776,11.061,1.254,22.615,6.129,31.059l66.91,114.397l119.444-206.35
		h241.387h136.143c8.93,0,18.926,3.38,27.611,8.71L618.038,43.708z"/>
	<polygon fill="#CECECE" points="162.174,360.372 284.219,569.032 523.26,569.032 640.721,361.51 523.004,154.021 281.618,154.021 	
		"/>
	<path fill="#6D6D6D" d="M93.432,207.422l-4.325,7.493c-0.776,11.061,1.254,22.615,6.129,31.059l66.91,114.397l35.597-61.498
		L93.432,207.422z"/>
	<path fill="#676767" d="M691.292,170.533l-4.502-7.802c-8.682-5.33-18.676-8.71-27.609-8.71H523.04l35.438,62.462L691.292,170.533z
		"/>
	<path fill="#A0A0A0" d="M423.737,709.113h11.707c8.055-4.768,15.066-11.228,19.166-18.327l68.914-121.754h-73.387L423.737,709.113z
		"/>
	<g>
		<path fill="#FFFFFF" d="M402.78,469.712c-59,0-107-48.001-107-107c0-58.998,48-106.999,107-106.999
			c58.998,0,106.998,48.001,106.998,106.999C509.778,421.711,461.778,469.712,402.78,469.712z"/>
		<path fill="#C8C8C8" d="M402.78,257.241c58.248,0,105.471,47.222,105.471,105.471c0,58.25-47.223,105.471-105.471,105.471
			c-58.25,0-105.471-47.221-105.471-105.471C297.309,304.463,344.53,257.241,402.78,257.241 M402.78,254.184
			c-59.844,0-108.529,48.686-108.529,108.527c0,59.843,48.686,108.528,108.529,108.528c59.84,0,108.527-48.686,108.527-108.528
			C511.307,302.87,462.62,254.184,402.78,254.184L402.78,254.184z"/>
	</g>
	<g>
		<path fill="#FFFFFF" d="M242.584,105.171c-11.383,0-20.645-9.262-20.645-20.645c0-11.384,9.262-20.644,20.645-20.644
			c11.385,0,20.645,9.261,20.645,20.644S253.969,105.171,242.584,105.171z"/>
		<path fill="#6C6C6C" d="M242.584,65.41c10.557,0,19.117,8.558,19.117,19.116s-8.56,19.115-19.117,19.115
			s-19.115-8.558-19.115-19.115C223.469,73.967,232.028,65.41,242.584,65.41 M242.584,62.352c-12.227,0-22.172,9.946-22.172,22.174
			c0,12.227,9.945,22.173,22.172,22.173s22.174-9.946,22.174-22.173C264.758,72.298,254.811,62.352,242.584,62.352L242.584,62.352z"
			/>
	</g>
	<circle fill="#FFFFFF" stroke="#6C6C6C" stroke-miterlimit="10" cx="561.75" cy="84.526" r="19.116"/>
	<g>
		<path fill="#FFFFFF" d="M242.584,658.509c-11.383,0-20.645-9.261-20.645-20.645c0-11.384,9.262-20.644,20.645-20.644
			c11.385,0,20.645,9.261,20.645,20.644C263.229,649.249,253.969,658.509,242.584,658.509z"/>
		<path fill="#B4B4B4" d="M242.584,618.749c10.557,0,19.117,8.56,19.117,19.116c0,10.557-8.56,19.116-19.117,19.116
			s-19.115-8.56-19.115-19.116C223.469,627.308,232.028,618.749,242.584,618.749 M242.584,615.692
			c-12.227,0-22.172,9.946-22.172,22.173c0,12.228,9.945,22.173,22.172,22.173s22.174-9.945,22.174-22.173
			C264.758,625.638,254.811,615.692,242.584,615.692L242.584,615.692z"/>
	</g>
	<g>
		<path fill="#FFFFFF" d="M561.75,658.509c-11.385,0-20.644-9.261-20.644-20.645c0-11.384,9.26-20.644,20.644-20.644
			c11.383,0,20.645,9.261,20.645,20.644C582.395,649.249,573.133,658.509,561.75,658.509z"/>
		<path fill="#727272" d="M561.75,618.749c10.557,0,19.115,8.56,19.115,19.116c0,10.557-8.559,19.116-19.115,19.116
			c-10.557,0-19.117-8.56-19.117-19.116C542.633,627.308,551.194,618.749,561.75,618.749 M561.75,615.692
			c-12.229,0-22.174,9.946-22.174,22.173c0,12.228,9.945,22.173,22.174,22.173s22.172-9.945,22.172-22.173
			C583.922,625.638,573.979,615.692,561.75,615.692L561.75,615.692z"/>
	</g>
	<g>
		<path fill="#FFFFFF" d="M722.413,383.356c-11.383,0-20.644-9.261-20.644-20.645c0-11.383,9.262-20.645,20.644-20.645
			c11.385,0,20.645,9.262,20.645,20.645C743.057,374.095,733.797,383.356,722.413,383.356z"/>
		<path fill="#727272" d="M722.413,343.596c10.557,0,19.117,8.558,19.117,19.115c0,10.559-8.56,19.116-19.117,19.116
			s-19.115-8.558-19.115-19.116C703.297,352.154,711.856,343.596,722.413,343.596 M722.413,340.539
			c-12.225,0-22.172,9.946-22.172,22.173c0,12.228,9.947,22.174,22.172,22.174c12.227,0,22.174-9.946,22.174-22.174
			C744.586,350.485,734.639,340.539,722.413,340.539L722.413,340.539z"/>
	</g>
	<g>
		<path fill="#FFFFFF" d="M81.635,383.356c-11.384,0-20.645-9.261-20.645-20.645c0-11.383,9.261-20.645,20.645-20.645
			s20.645,9.262,20.645,20.645C102.279,374.095,93.019,383.356,81.635,383.356z"/>
		<path fill="#B4B4B4" d="M81.635,343.596c10.557,0,19.116,8.558,19.116,19.115c0,10.559-8.56,19.116-19.116,19.116
			c-10.557,0-19.116-8.558-19.116-19.116C62.519,352.154,71.078,343.596,81.635,343.596 M81.635,340.539
			c-12.227,0-22.173,9.946-22.173,22.173c0,12.228,9.946,22.174,22.173,22.174c12.228,0,22.173-9.946,22.173-22.174
			C103.808,350.485,93.862,340.539,81.635,340.539L81.635,340.539z"/>
	</g>
</g>
</svg>
