<?xml version="1.0" encoding="utf-8"?>
<!-- Generator: Adobe Illustrator 17.0.0, SVG Export Plug-In . SVG Version: 6.00 Build 0)  -->
<!DOCTYPE svg PUBLIC "-//W3C//DTD SVG 1.1//EN" "http://www.w3.org/Graphics/SVG/1.1/DTD/svg11.dtd">
<svg version="1.1" id="Layer_1" xmlns="http://www.w3.org/2000/svg" xmlns:xlink="http://www.w3.org/1999/xlink" x="0px" y="0px"
	 width="193px" height="83px" viewBox="385.5 235.5 193 83" enable-background="new 385.5 235.5 193 83" xml:space="preserve">
<g>
	<path fill="#ACACAC" d="M446.3,294.3c-0.1,0-0.2-0.2-0.2-0.3c0,0.1,0,0.3,0,0.3H446.3L446.3,294.3z"/>
	<path fill="#ACACAC" d="M493.4,279.7v-0.1c-0.6-0.1-1.2-0.1-1.9-0.2c0,0.1,0,0.2,0,0.3c0.2,0,0.4,0,0.6,0c0,0.1,0,0.2,0.1,0.2
		c0.5,0.3,0.8,0.7,1.1,1.2c0.5,0.3,0.9,0.6,1.2,1c0.5-0.4,0.9-0.8,1.3-1.3c-0.4,0-0.8,0-1.2,0c-0.1,0-0.2-0.1-0.3-0.2
		c-0.1-0.2-0.2-0.3-0.3-0.5c-0.2,0-0.4-0.1-0.6-0.3L493.4,279.7L493.4,279.7z"/>
	<path fill="#ACACAC" d="M499.5,284c-0.1,0-0.2,0.1-0.3,0.2c-0.1,0.1-0.2,0.2-0.2,0.2c0.6,0.1,1.3,0.1,1.9,0.1
		c-0.2-0.1-0.4-0.2-0.6-0.2c-0.1-0.1-0.1-0.1-0.1-0.2C500,284.1,499.8,284,499.5,284L499.5,284z"/>
	<path fill="#ACACAC" d="M515.5,269.3c0,0,0,0-0.1-0.1c-0.1,0.1-0.2,0.2-0.3,0.3C515.3,269.5,515.4,269.4,515.5,269.3L515.5,269.3z"
		/>
	<path fill="#ACACAC" d="M448,292.9L448,292.9c0.1-0.1,0.2-0.1,0.3-0.2c0-0.1,0-0.1,0-0.1s-0.1,0-0.2,0c0.1-0.2,0.2-0.3,0.4-0.5
		c-0.4-1.1-0.6-2.1-0.7-3.2c-1,0.1-2,0.1-3,0.1c0-0.1,0-0.2,0-0.2c0-0.2,0-0.3,0-0.5h-9.2v6h2.8c1.4-1,2.8-2.2,4.1-3.2
		c0.2-0.1,0.2-0.2,0.3-0.3c0.2,0,0.4,0,0.5,0.1c-1.4,1.1-2.8,2.2-4.3,3.4h5.2c0-0.4,0-0.7,0-1c0-0.1,0-0.1,0-0.2
		c0.3,0.1,0.7,0.1,1.1,0.1c-0.1-0.2-0.3-0.4-0.5-0.6c-0.3-0.3-0.6-0.7-0.9-1c0-0.1,0-0.2,0-0.3c0-0.4,0-0.8,0-1.1c0-0.1,0-0.2,0-0.2
		c0.5,0,1.1,0,1.6,0.1C446.3,291,447.1,292,448,292.9L448,292.9z"/>
	<path fill="#ACACAC" d="M435.6,267.1v5.9h11.8v4.6h-10.1v5.9h10.1v4.1c0.1-0.1,0.2-0.1,0.2,0c0-0.2,0-0.3,0-0.4
		c0.6,0,1.1,0,1.6,0.1c0,0.1,0,0.2,0,0.3c0,0,0,0.1,0,0.2s0,0.2,0,0.2c0.1,0.3,0.1,0.6,0.3,0.9c0.1,0.3,0.3,0.6,0.4,0.9
		c0.4-0.7,0.7-1.3,1.2-1.9c0-0.1,0-0.2,0.1-0.3c0.2,0.1,0.4,0.1,0.6,0.1c-0.6,0.9-1.2,1.8-1.7,2.8c0,0.1,0,0.2,0,0.3
		c0.3-0.2,0.4-0.5,0.4-0.8c0.5,0,1,0,1.5,0.1c0,0.2,0,0.3,0,0.4c0,0.6,0,1.1,0,1.6c-0.2,0.2-0.4,0.5-0.7,0.8
		c0.1,0.3,0.1,0.5,0.1,0.7c0,0.1,0.1,0.2,0.1,0.2c0.1,0.2,0.3,0.3,0.4,0.5h2.2V288c-0.2,0-0.4,0-0.5,0c0-0.2,0-0.4,0-0.7
		c0-0.4,0-0.9,0-1.4v-0.1c0.2-0.2,0.4-0.4,0.5-0.6v-10.5c-0.3,0-0.6,0-1,0c-0.4,0.7-0.8,1.4-1.3,2.2c0,0.1-0.2,0.2-0.2,0.3v0.1
		c-0.3,0-0.5,0-0.7-0.1c0.6-0.8,1.1-1.6,1.6-2.4c-0.7,0-1.4,0-2.1,0.1c-0.1-0.1-0.2-0.2-0.3-0.3c0,0,0-0.1,0-0.2c0-0.5,0-1,0-1.6
		l0,0c0.2-0.1,0.3-0.1,0.4-0.2c0-0.1,0-0.2,0-0.2c0-0.1,0-0.1,0-0.2l0,0c0.1-0.1,0.3-0.1,0.5-0.2c-0.1,0-0.1,0-0.1,0
		c0-0.1,0-0.1-0.1-0.1s-0.2-0.1-0.3-0.2c0,0,0-0.1,0-0.2c0-0.6,0-1.2,0-1.9v-0.1c0.5-0.1,0.7-0.4,0.6-0.8c0.6,0,1.2,0,1.9,0.1
		c0,0,0,0.1,0,0.2c0.1,0.1,0.1,0.2,0.1,0.2c0.1,0.1,0.1,0.2,0.1,0.3c0.1,0.3,0.1,0.7,0.1,1.1c0.2,0,0.5,0,0.8,0v-3.5L435.6,267.1
		L435.6,267.1z"/>
	<path fill="#ACACAC" d="M454.1,273.3c-0.1,0-0.1,0.1-0.1,0.1s0,0,0.1,0V273.3L454.1,273.3z"/>
	<path fill="#ACACAC" d="M479.9,284c0,0,0,0-0.1,0c-0.7,0.6-1.5,1.2-2.3,1.8v0.4c0.6,0,1.2-0.1,1.8-0.2v-0.2v-0.1
		C479.7,285.2,479.9,284.6,479.9,284L479.9,284z"/>
	<path fill="#ACACAC" d="M516.2,271.5c0,0.1,0,0.1,0,0.1c-0.1,0-0.1,0.1-0.2,0.1c0,0.1,0,0.1-0.1,0.1c-0.4,0.3-0.9,0.5-1.4,0.9
		c0,0.1,0,0.2-0.1,0.2c0,0.1,0,0.1,0,0.2c-0.3,0-0.6,0.1-0.9,0.2c-0.3,0-0.4,0.2-0.4,0.4c-0.1,0.1-0.3,0.1-0.4,0.2
		c-0.4,0.2-0.6,0.4-0.8,0.7c-0.1,0.1-0.2,0.2-0.2,0.3c0,0.2,0.1,0.4,0.2,0.6c1.6-1.3,3.2-2.6,4.9-3.8l0,0
		C516.6,271.6,516.4,271.6,516.2,271.5L516.2,271.5z"/>
	<path fill="#ACACAC" d="M538.5,277.2c0,0.3,0,0.6,0,0.9v0.1c-0.1,0.1-0.3,0.1-0.4,0.1c0.1,0.2,0.3,0.3,0.4,0.5c0,0.1,0,0.2,0,0.2
		c0,0.1,0,0.2,0,0.3c0.3,0.2,0.6,0.5,0.8,0.8c0.9-1.2,1.3-2.6,1.3-4.3c0-0.2,0-0.5,0-0.7c-0.8,0.6-1.6,1.2-2.4,1.8
		c0.1,0,0.2,0,0.3,0C538.5,277,538.5,277.1,538.5,277.2L538.5,277.2z"/>
	<path fill="#ACACAC" d="M510.4,272.7c0,0.1,0,0.2,0,0.3c0-0.1,0.1-0.2,0.1-0.2c0.1-0.1,0.1-0.2,0.1-0.2h-0.1
		C510.5,272.6,510.5,272.6,510.4,272.7L510.4,272.7z"/>
	<path fill="#ACACAC" d="M472,276.8c-0.2,0-0.4,0-0.5,0c0-0.1,0-0.1,0-0.2c-0.1,0-0.1,0-0.1,0.1c-0.1,0.2-0.1,0.5-0.1,0.8
		C471.5,277.3,471.7,277,472,276.8L472,276.8z"/>
	<path fill="#ACACAC" d="M475.5,272.9c0.1,0,0.2,0,0.3,0.1c-0.2-0.5-0.3-0.9-0.6-1.4c-0.3,0.4-0.5,0.7-0.6,1.1l0,0
		c-0.3,0.1-0.5,0.2-0.8,0.2c0,0.1-0.1,0.2-0.1,0.3c0,0.2-0.1,0.4-0.1,0.7c0,0,0,0.1-0.1,0.1c-0.3,0.3-0.5,0.6-0.8,1c0,0,0,0.1,0,0.2
		c-0.1,0-0.1,0.1-0.1,0.1c0.2,0,0.3,0,0.4,0c0,0.1,0,0.2,0,0.3c0,0,0,0,0,0.1c0.8-0.9,1.6-1.7,2.3-2.5
		C475.4,273.1,475.5,273,475.5,272.9L475.5,272.9z"/>
	<path fill="#ACACAC" d="M498.5,286.3c0,0.3,0.1,0.6,0.1,0.9c0.2,1.1,0.8,2.3,1.7,3.6c1-1.1,2-2.2,2.9-3.2c0,0,0-0.1-0.1-0.1
		c-0.1-0.1-0.2-0.2-0.2-0.2C501.5,286.7,500,286.4,498.5,286.3L498.5,286.3z"/>
	<path fill="#ACACAC" d="M505,277.1c0.4-0.4,0.8-0.8,1.2-1.3c-0.2,0-0.4,0-0.6-0.1c0,0.1-0.1,0.2-0.2,0.3c-0.1,0.2-0.2,0.3-0.4,0.5
		c0-0.2,0-0.4,0.1-0.5c0.1-0.9,0.4-1.5,0.7-1.9c0.2-0.2,0.4-0.5,0.7-0.6c0-0.7,0.1-1.4,0.1-2.1c0.4-0.1,0.8-0.1,1.2-0.1
		c0-0.2,0-0.5,0.1-0.8c0.2-0.9,0.7-1.4,1.5-1.6c0.1,0.1,0.2,0.2,0.4,0.3c0.2,0.4,0.3,0.8,0.5,1.2c0.4-0.2,1-0.3,1.6-0.3
		c0.4-0.8,1-1.5,1.7-2.1c0,0,0,0,0.1,0c-1.5-0.8-3.2-1.1-5.2-1.1c-1.6,0-3,0.2-4.2,0.7c-1.2,0.6-2.4,1.4-3.6,2.5
		c-1.1,1.2-1.9,2.5-2.1,4c-0.3,1.5-0.4,3.7-0.4,6.6c0,0.5,0,1,0,1.4c0.2-0.2,0.3-0.4,0.5-0.5c0,0,0,0,0-0.1c0.8,0.1,1.5,0.1,2.2,0.2
		c0,0,0,0.1,0,0.2c0.1,0,0.1,0,0.2,0.1s0.3,0.2,0.5,0.2c0.1,0.1,0.1,0.2,0.2,0.3c0.3,0,0.6,0.1,0.9,0.2c0.3,0,0.5,0.1,0.7,0.2
		c0,0,0,0,0.1,0.1c0,0.1,0.1,0.2,0.2,0.2c0,0.1,0,0.1,0.1,0.1c0,0.1,0.1,0.1,0.2,0.2c0,0.1,0,0.2,0,0.2c0,0.1,0,0.1,0,0.2
		c0,0,0,0,0.1,0c0.1,0.1,0.2,0.2,0.3,0.3c0.1,0,0.2,0.1,0.3,0.2l0.1,0.1c0.1,0.1,0.1,0.1,0.1,0.1h0.1c-0.1-0.9-0.1-2.2-0.1-3.9
		C504.9,279.2,504.9,278,505,277.1L505,277.1z"/>
	<path fill="#ACACAC" d="M421,276.6c-0.1,0.3-0.3,0.6-0.5,0.9h-2.2v3.4c-0.1,0.2-0.2,0.3-0.3,0.4c0.1,0,0.2,0,0.3,0v2.1h5.8v3.5
		c0.2,0,0.4,0,0.7,0c0,0.1,0,0.2,0,0.3c0,0.3,0,0.6,0,0.9c-0.3,0.1-0.5,0.2-0.7,0.2v0.9h1.8c-0.3,0.6-0.6,1.1-1,1.6
		c0.2,0,0.4,0,0.6,0c0.1,0,0.1,0,0.1,0c0.1-0.2,0.1-0.3,0.2-0.5c0.3-0.3,0.5-0.7,0.7-1.1h3.5v-5.8h5.8v-5.9h-4.1
		c-0.5,0-0.9,0-1.4,0.1c0,0.1-0.1,0.2-0.2,0.3c-0.6,0.1-1.2,0.2-1.7,0.3c0.1-0.2,0.2-0.4,0.3-0.6c-0.5-0.1-0.9-0.1-1.3-0.2
		c-0.2,0-0.3,0-0.4,0c0-0.1,0-0.2,0-0.2c0-0.4,0-0.7,0-1c0-0.1,0-0.1,0-0.2c0.1-0.1,0.3-0.2,0.4-0.3c0.1,0,0.1-0.1,0.1-0.2
		c0.2-0.5,0.6-0.9,1-1.1v-0.1c0.5,0.1,1,0.1,1.5,0.1v-2.7h-1.1c-0.8,0.8-1.6,1.7-2.4,2.6c-0.2,0.2-0.3,0.3-0.4,0.4
		c0,0.1,0,0.1-0.1,0.1c-0.2,0-0.4,0-0.5-0.1c0.9-1,1.9-2,2.9-3h-4.3v5.8H421c0.3-0.4,0.5-0.7,0.7-1.1c-0.2,0-0.4,0-0.5,0
		C421.1,276.4,421,276.5,421,276.6L421,276.6z M424.7,277.2h0.1c0.5,0,1,0,1.5,0c0,0.1,0.2,0.2,0.3,0.3c0,0.5,0.1,1.1,0.1,1.6
		c-0.1,0.6-0.1,1.1-0.1,1.7c-0.6,0-1.3,0-1.8-0.1v-0.1c0-0.1,0-0.2-0.1-0.2c0-0.2-0.1-0.4-0.3-0.5c0-0.2,0-0.3,0-0.5
		c0-0.5,0-1.1,0-1.6c0-0.1,0-0.2,0.1-0.2C424.6,277.4,424.7,277.3,424.7,277.2L424.7,277.2z"/>
	<path fill="#ACACAC" d="M462.1,266.1c-0.1,0-0.3,0-0.5-0.1c-0.1,0.1-0.1,0.2-0.2,0.3c-0.1,0.2-0.3,0.5-0.5,0.8h-4.7v21.1
		c0.2,0.3,0.3,0.6,0.4,0.9c0.1,0.4,0.1,0.9,0.1,1.4l0,0c-0.1,0-0.3,0-0.5,0.1v3.7h6.6v-10.1h0.8c0.6-0.8,1.1-1.6,1.6-2.4
		c0-0.3,0-0.6,0-0.9c0-0.1,0-0.1,0-0.2c0.3-0.2,0.5-0.5,0.6-0.7c0.2-0.1,0.4-0.1,0.6-0.2c0,0,0-0.1,0.1-0.1c0-0.2,0.1-0.3,0.3-0.4
		c0-0.1,0-0.1-0.1-0.1c-0.3-0.1-0.6-0.2-0.9-0.2c0-0.1,0-0.2,0-0.3v-0.1h-3v-5.5h3.8c0.9,0,1.6,0.3,2.1,0.8c0.1,0.1,0.1,0.1,0.2,0.2
		c0.6,0,1.3,0,2,0c0-0.1,0-0.1,0.1-0.2c0.1-0.3,0.3-0.7,0.5-1.1l0,0c0.1-0.1,0.3-0.1,0.4-0.2s0.1-0.2,0.1-0.2c0-0.4,0.1-0.7,0.2-1
		c0,0,0.1,0,0.1-0.1c0.3-0.1,0.5-0.2,0.7-0.3c0.1,0,0.1-0.1,0.1-0.1c0.4-0.3,0.7-0.7,0.8-1c0-0.1-0.1-0.2-0.2-0.2
		c-1.6-1.8-3.9-2.6-6.8-2.6h-5.3C461.7,266.8,461.9,266.5,462.1,266.1L462.1,266.1z"/>
	<path fill="#ACACAC" d="M531.3,267.1H530c-0.2,0.2-0.4,0.4-0.6,0.6c-1.1,0.1-2.3,0.2-3.4,0.2c0,0.4,0,0.7,0,1v0.1
		c-0.6,0-1.1,0-1.7-0.1c0,0,0,0-0.1-0.1c-0.1,0.1-0.3,0.2-0.5,0.3c0,0,0,0.1-0.1,0.2c0,0.1-0.1,0.2-0.1,0.3c-0.2,0-0.4,0.1-0.6,0.3
		v0.1c0,0.1,0,0.1-0.1,0.1c-0.5,0-1,0.1-1.5,0.1c0-0.2,0-0.3,0-0.5c0-0.4,0-0.9,0-1.4c0-0.1,0-0.1,0-0.1c-0.3,0-0.5,0-0.8,0V280
		c-0.5,0.8-1.1,1.7-1.6,2.6c0-0.6,0-1.3,0-1.9c0-2.8-0.2-5-0.4-6.5c-0.2-0.8-0.5-1.6-0.9-2.3c-0.2-0.1-0.3-0.1-0.4-0.1
		c-1.8,1.4-3.5,2.8-5.2,4.1c0,0.1,0,0.1,0,0.1c0.1,0.9,0.2,2.4,0.2,4.7c0,0.6,0,1.1,0,1.5c0.9,0,1.7,0,2.5,0c0,0.1,0,0.2,0,0.3
		c0,0.3,0,0.6,0,0.9c-0.6,0.2-1.3,0.3-1.9,0.4c0,0.2,0.1,0.4,0.1,0.6c0.1,0.1,0.2,0.2,0.2,0.3c0.1,0,0.1,0.1,0.1,0.2
		c0.1,0.1,0.1,0.1,0.2,0.2c0.4,0.1,0.9,0.2,1.3,0.3c0,0,0,0.1,0,0.2c0,0.5,0,1,0,1.4c-0.2,0.3-0.3,0.5-0.4,0.7
		c-0.3,0.4-0.5,0.9-0.9,1.2c-1.2,0-2.5,0-3.7,0.1c0,0.2,0,0.4,0,0.5s0,0.1,0,0.2c-0.1,0.1-0.2,0.2-0.3,0.3c-0.6,0-1.1,0-1.6-0.1
		c0,0,0-0.1,0-0.2c0-0.4,0-0.8,0-1.2c-0.3,0-0.6-0.2-0.8-0.3c-0.1-0.1-0.1-0.1-0.2-0.1c-0.3,0-0.7,0-1.1,0c-0.1,0.1-0.2,0.3-0.4,0.4
		c0,0.1,0,0.1,0,0.1c-0.3,0.2-0.5,0.5-0.8,0.8c-0.1,0.1-0.2,0.2-0.4,0.4c0,0,0,0-0.1,0s-0.3,0-0.5,0c0.3-0.4,0.7-0.8,1-1.1
		c-0.2,0-0.5,0-0.8,0c0-0.1,0-0.2,0-0.3c0-0.2,0-0.4,0-0.6c0,0,0,0-0.1,0c-1,1.1-2,2.2-3,3.3c0.3,0.3,0.6,0.6,0.9,0.9
		c1.7,1.7,4,2.5,7,2.5c1.6,0,3-0.2,4.3-0.7c1.2-0.5,2.3-1.3,3.3-2.4c1.3-1.2,2.1-2.6,2.4-4.1c0.1-1,0.3-2.1,0.3-3.6
		c0.6-0.9,1.2-1.8,1.7-2.7v7.7c0.2-0.4,0.3-0.8,0.6-1.2c0.2-0.3,0.5-0.7,0.8-0.9c0.4,0,0.8,0,1.3,0c-0.7,1.1-1.4,2.2-2.1,3.2
		c0.2,0,0.4,0,0.7,0l0,0c0.1-0.2,0.2-0.3,0.2-0.4c0.5-0.8,1-1.6,1.5-2.3c0,0.3,0,0.6,0,0.9c-0.4,0.7-0.7,1.3-1.2,1.9
		c-0.1,0.3-0.3,0.5-0.3,0.8c0.1,0.1,0.2,0.2,0.2,0.3c0,0.1,0,0.2,0,0.3c0,0.2,0,0.5,0,0.7c0,0,0,0.1,0,0.2c-0.3,0.1-0.7,0.1-1.1,0.2
		c-0.1,0.2-0.3,0.4-0.6,0.5v1.4h6.7v-10.1h2.2l4.9,10.1h7.7l-3.6-7c-0.4,0-0.7,0-1,0c0,0.1-0.1,0.2-0.2,0.3
		c-0.2,0.1-0.3,0.3-0.5,0.4c-0.3,0-0.6,0-0.9,0c0.8-0.8,1.6-1.6,2.3-2.5c-0.1,0-0.3,0-0.5,0c-0.1,0-0.1,0.1-0.2,0.2
		c-0.8,0.8-1.5,1.6-2.2,2.3c-0.6,0-1.1,0-1.7,0c0,0,0-0.1,0-0.2c0-0.4,0-0.9,0-1.4c0-0.1,0-0.1,0-0.1c0.2-0.2,0.4-0.4,0.6-0.5
		c-0.1-0.4-0.3-0.7-0.6-1s-0.7-0.6-1-0.8c-0.1-0.1-0.1-0.2-0.1-0.3c0,0,0-0.1-0.1-0.1v-0.1c-0.4-0.3-0.9-0.7-1.3-1.1
		c0-0.1,0-0.2,0-0.2c0-0.4,0-0.8,0-1.1c0-0.1,0-0.1,0-0.2c0.6,0.1,1.2,0.1,1.9,0.1v0.1c0.3,0.3,0.6,0.6,0.9,0.8
		c0.1,0.1,0.1,0.2,0.2,0.3c0,0.2,0.2,0.3,0.4,0.4c0.1,0.1,0.2,0.2,0.3,0.4c0.1,0,0.1,0,0.1,0c0-0.2,0-0.4,0-0.5c0.5,0,1.1,0,1.7-0.1
		c-0.1,0-0.1,0-0.1,0c-0.5-0.3-1.1-0.4-1.6-0.3c0-0.1,0-0.2,0-0.2c0-0.3,0-0.5,0-0.8c0-0.1,0-0.2,0-0.3c0-0.1,0-0.2,0-0.2
		c0.6-0.1,1.3-0.1,1.9,0c0-0.2-0.1-0.4-0.1-0.6c-0.1-0.2-0.3-0.5-0.5-0.7c-0.2-0.3-0.5-0.6-0.7-0.9c0-0.6,0-1.2,0-1.9
		c0-0.5,0-1,0-1.5c0.5,0,1,0,1.6,0c0,0.7,0.1,1.3,0.3,1.9c0.1,0,0.2,0,0.4,0c0.9-0.8,1.9-1.5,2.8-2.2c-0.2-1.9-1-3.6-2.4-5
		C536.4,267.9,534.2,267.1,531.3,267.1L531.3,267.1z M533.9,275.8c0,0.8-0.3,1.4-0.8,2c-0.5,0.5-1.2,0.8-2.1,0.8h-3.8v-5.5h3.8
		c0.9,0,1.6,0.3,2.1,0.8C533.6,274.5,533.9,275.1,533.9,275.8L533.9,275.8z"/>
	<path fill="#ACACAC" d="M471.9,277.5c-0.1,0.1-0.2,0.2-0.4,0.4l0,0c-0.1,0-0.2,0-0.2,0c-0.1,0.3-0.1,0.7-0.2,1.1l0,0
		c-0.1,0.2-0.2,0.3-0.3,0.4c0,0.1,0,0.2,0,0.2c-0.1,0.4-0.3,0.7-0.5,0.9c-0.1,0.1-0.1,0.1-0.1,0.1c-0.4,0-0.7,0.1-1.1,0.2
		c-0.1,0-0.2,0.1-0.2,0.2c-0.5,0.4-1,0.7-1.4,1.1c-0.1,0-0.2,0-0.3,0c1.1-1.2,2.2-2.3,3.2-3.5c-0.1,0-0.3,0-0.5,0
		c0,0-0.1,0.1-0.2,0.2c-1.1,1.1-2.1,2.2-3.1,3.3c-0.3,0-0.7,0-1,0c-0.4,0.6-0.8,1.3-1.2,2c-0.1,0-0.1,0-0.1,0.1h0.8l4.8,10.1h14.3
		v-10.1h2.2l4.9,10.1h7.7l-4.6-9c-0.5-0.4-0.9-0.8-1.2-1.3c-0.3-0.6-0.8-1-1.4-1.2c0-0.2-0.1-0.3-0.3-0.4c-0.5-0.4-0.9-0.8-1.2-1.3
		c0,0,0-0.1,0-0.2c0,0,0,0,0-0.1c-0.8-0.1-1.6-0.4-2.3-1c-0.1-0.2-0.3-0.3-0.6-0.5c0,0,0-0.1,0-0.2s0-0.3,0-0.5h-3.2v-5.5h3.8
		c0.9,0,1.5,0.3,2,0.8c0.6,0.6,0.9,1.2,0.9,1.9c0,0.8-0.3,1.4-0.9,2l0,0c1.7,0,3.3,0,5,0.1c0,0,0,0.1,0,0.2v0.1v0.1
		c0.2,0.1,0.4,0.1,0.6,0.2c0,0,0,0.1,0,0.2c0.2,0.2,0.3,0.3,0.5,0.5c0.2,0,0.4,0.1,0.7,0.2c0.5-1.1,0.8-2.3,0.8-3.6
		c0-0.3,0-0.7-0.1-1c0.7-1,1.3-2,1.9-3.1c-0.1,0-0.3,0-0.5,0c-0.1,0-0.1,0.1-0.2,0.2c-0.4,0.7-0.8,1.4-1.3,2.1
		c-0.3-1.6-1.1-3.1-2.3-4.3c-1.7-1.8-3.9-2.6-6.8-2.6h-3.9c-0.1,0-0.1,0-0.1,0c0,0.1,0,0.2-0.1,0.3c0,0-0.2,0.1-0.2,0.2
		c-0.1,0.1-0.2,0.2-0.3,0.2c-0.3-0.2-0.6-0.5-0.8-0.7h-5.4v12.7c-0.4,0.6-0.8,1.2-1.2,1.8c0.2,0.1,0.4,0.1,0.6,0.1
		c0.1,0,0.1,0,0.1-0.1c0.1-0.1,0.1-0.2,0.2-0.4c0.1-0.1,0.2-0.3,0.3-0.4v4.5c0.6-0.4,1.2-0.9,1.8-1.3c0-0.1,0-0.2,0-0.3
		c0-0.2,0-0.4,0-0.7c0,0,0-0.1,0-0.2s0-0.2,0-0.2c0-0.1,0-0.1,0-0.1c0-0.3,0-0.6,0-0.9c0,0,0,0,0-0.1c0.5,0.1,1,0.1,1.6,0.1
		c0,0.1,0,0.2,0,0.3c0,0.2,0,0.4,0,0.6c0.3-0.3,0.6-0.7,0.9-1c0.8,0.1,1.7,0.1,2.5,0.1c0.2,1.4-0.1,2.7-0.9,3.9c-0.1,0-0.2,0-0.4,0
		c0,0,0,0.1-0.1,0.2c-1.5,1.6-3,3.1-4.5,4.7c0.2,0,0.4,0,0.6,0c0,0,0,0,0.1,0c0.1-0.1,0.2-0.3,0.3-0.4c1.2-1.2,2.3-2.4,3.5-3.7
		c-0.2,0.3-0.4,0.5-0.4,0.7c-0.2,0.4-0.3,0.8-0.4,1.1c-0.1,0.1-0.2,0.1-0.3,0.2c-0.1,0-0.1,0.1-0.1,0.2c-0.1,0.2-0.2,0.3-0.2,0.5
		c-0.1,0-0.2,0.1-0.3,0.3c0,0,0,0.1,0,0.2c0,0.5-0.2,1-0.4,1.4c0.3,0.1,0.6,0.1,1,0.1c0,0.1,0,0.2,0,0.3c0,0.1,0,0.3,0,0.5
		c0,0.1,0,0.2,0,0.4c-0.5,0.4-1.1,0.7-1.8,0.9c-0.5,0.2-1.1,0.2-1.7,0.3v-0.1c-0.1-0.1-0.2-0.2-0.3-0.2c0-0.1,0-0.2,0-0.3
		c0,0,0-0.1,0-0.2s0-0.2,0-0.2c-0.1,0-0.3,0-0.5,0v1.6l-0.7-1.4c0.5-0.8,1-1.6,1.5-2.4c0.1,0,0.2,0,0.3,0.1c0-0.3,0.1-0.5,0.1-0.7
		c0.1-0.2,0.2-0.4,0.4-0.6c-0.2-0.1-0.3-0.1-0.4-0.1c0-0.3-0.2-0.6-0.4-1v0.1c0,0.4,0,0.8,0,1.3c-0.6,0.9-1.2,1.8-1.8,2.7l-4.7-9.1
		c1.2-0.6,2.2-1.5,3.1-2.7s1.3-2.7,1.3-4.4c0-0.9-0.1-1.8-0.3-2.6c-1,1-1.9,2-2.9,3.1c0,0.1,0,0.2,0,0.2v0.1
		c-0.1,0.1-0.2,0.1-0.3,0.1C472.4,276.9,472.2,277.2,471.9,277.5L471.9,277.5z"/>
</g>
</svg>
