<?xml version="1.0" encoding="utf-8"?>
<!-- Generator: Adobe Illustrator 17.0.0, SVG Export Plug-In . SVG Version: 6.00 Build 0)  -->
<!DOCTYPE svg PUBLIC "-//W3C//DTD SVG 1.1//EN" "http://www.w3.org/Graphics/SVG/1.1/DTD/svg11.dtd">
<svg version="1.1" id="Layer_1" xmlns="http://www.w3.org/2000/svg" xmlns:xlink="http://www.w3.org/1999/xlink" x="0px" y="0px"
	 width="19.25px" height="18.25px" viewBox="3.188 3.688 19.25 18.25" enable-background="new 3.188 3.688 19.25 18.25"
	 xml:space="preserve">
<g>
	<path fill="#9C9C9C" d="M15.771,12.492c1.295-0.587,1.488-5.055,0.724-6.371c-0.998-1.718-5.742-1.373-7.24-0.145
		c-0.172,0.61-0.154,1.717-0.146,2.597h4.702v0.412H9.11c0,0.006-2.093,0.013-2.093,0.013c-3.609,0-3.534,7.838,1.228,7.838
		c0,0,0.175-1.736,0.481-2.606C9.671,11.545,13.641,13.458,15.771,12.492z M10.848,7.937c-0.542,0-0.981-0.439-0.981-0.982
		c0-0.542,0.439-0.982,0.981-0.982c0.543,0,0.982,0.44,0.982,0.982C11.831,7.497,11.391,7.937,10.848,7.937z"/>
	<path fill="#9C9C9C" d="M17.593,9.163c0,0-0.125,1.737-0.431,2.606c-0.945,2.684-4.914,0.772-7.045,1.738
		c-1.294,0.587-1.489,5.055-0.724,6.371c0.997,1.719,5.741,1.374,7.24,0.145c0.172-0.609,0.154-1.716,0.146-2.596h-4.703v-0.412
		h4.701c0-0.006,2.317-0.013,2.317-0.013C22.42,17.002,22.718,9.163,17.593,9.163z M14.871,17.892c0.542,0,0.982,0.439,0.982,0.982
		c0,0.542-0.44,0.981-0.982,0.981s-0.981-0.439-0.981-0.981C13.89,18.331,14.329,17.892,14.871,17.892z"/>
</g>
</svg>
