<?xml version="1.0" encoding="utf-8"?>
<!-- Generator: Adobe Illustrator 17.0.0, SVG Export Plug-In . SVG Version: 6.00 Build 0)  -->
<!DOCTYPE svg PUBLIC "-//W3C//DTD SVG 1.1//EN" "http://www.w3.org/Graphics/SVG/1.1/DTD/svg11.dtd">
<svg version="1.1" id="Layer_1" xmlns="http://www.w3.org/2000/svg" xmlns:xlink="http://www.w3.org/1999/xlink" x="0px" y="0px"
	 width="1380.138px" height="1371.137px" viewBox="0 0 1380.138 1371.137" enable-background="new 0 0 1380.138 1371.137"
	 xml:space="preserve">
<path fill="#ACACAC" d="M301.887,22.842h699c153.535,0,278,124.465,278,278v699c0,153.535-124.465,278-278,278h-699
	c-153.535,0-278-124.465-278-278v-699C23.887,147.306,148.351,22.842,301.887,22.842z"/>
<path fill="#878787" d="M1083.237,1049.668c0,0-48.74-81.23-129.97-81.23c-78.53,0-124.56,81.23-282.97,81.23
	c-350.64,0-517.25-291.51-518.54-293.79c0-0.01-0.01-0.01-0.01-0.01l-128.86-138.71v-316.41c0-153.54,124.46-278,278-278h248.14
	l183.55,186.14c0.01,0,0.01,0.01,0.02,0.02c414.28,281.61,280.24,591.64,280.24,591.64S1130.627,933.228,1083.237,1049.668z"/>
<path fill="#FFFFFF" d="M733.574,208.983c414.297,281.614,280.26,591.66,280.26,591.66s117.79,132.683,70.404,249.12
	c0,0-48.741-81.235-129.976-81.235c-78.527,0-124.56,81.235-282.968,81.235c-352.017,0-518.549-293.799-518.549-293.799
	c316.959,208.859,533.442,60.926,533.442,60.926c-142.986-83.056-446.791-479.285-446.791-479.285
	c264.807,225.238,379.096,284.322,379.096,284.322C550.074,565.592,358.54,290.218,358.54,290.218
	C511.793,445.279,816.163,661.19,816.163,661.19C902.981,422.524,733.574,208.983,733.574,208.983z"/>
</svg>
